PathFileType	4	(X/Y/Z)	Run_400 01
DataRate	CameraRate	NumFrames	NumMarkers	Units	OrigDataRate	OrigDataStartFrame	OrigNumFrames
120	120	4	42	mm	120	88	128
Frame#	Time	LASI			RASI			LPSI			RPSI			RTH1			RTH2			RTH3			LTH1			LTH2			LTH3			RTB1			RTB2			RTB3			LTB1			LTB2			LTB3			RCAL			RTOE			RMT5			LCAL			LTOE			LMT5			LACR			RACR			CLAV			C7			RUA1			RUA2			RUA3			RLEL			RMEL			LUA1			LUA2			LUA3			LLEL			LMEL			RFAsuperior			RFAradius			RFAulna			LFAsuperior			LFAradius			LFAulna			
		X1	Y1	Z1	X2	Y2	Z2	X3	Y3	Z3	X4	Y4	Z4	X5	Y5	Z5	X6	Y6	Z6	X7	Y7	Z7	X8	Y8	Z8	X9	Y9	Z9	X10	Y10	Z10	X11	Y11	Z11	X12	Y12	Z12	X13	Y13	Z13	X14	Y14	Z14	X15	Y15	Z15	X16	Y16	Z16	X17	Y17	Z17	X18	Y18	Z18	X19	Y19	Z19	X20	Y20	Z20	X21	Y21	Z21	X22	Y22	Z22	X23	Y23	Z23	X24	Y24	Z24	X25	Y25	Z25	X26	Y26	Z26	X27	Y27	Z27	X28	Y28	Z28	X29	Y29	Z29	X30	Y30	Z30	X31	Y31	Z31	X32	Y32	Z32	X33	Y33	Z33	X34	Y34	Z34	X35	Y35	Z35	X36	Y36	Z36	X37	Y37	Z37	X38	Y38	Z38	X39	Y39	Z39	X40	Y40	Z40	X41	Y41	Z41	X42	Y42	Z42	

88	0.808333	738.533686	961.035742	-489.282292	711.589608	974.0629	-246.290753	559.777234	982.5102000000001	-423.965627	548.452959	987.468654	-337.903202	720.000936	802.667151	-204.514949	824.044171	718.789924	-244.037841	794.390852	574.498999	-249.89396	704.2106669999999	808.736924	-529.193613	751.494476	696.925503	-523.796161	684.326587	562.841697	-526.2680800000001	856.938979	380.997182	-336.020252	816.5871979999999	319.638266	-279.675449	799.545113	210.115736	-355.439989	575.1768029999999	439.872679	-445.344628	476.293262	503.678554	-488.575805	403.351795	515.559205	-412.647577	653.568923	99.46933900000001	-355.549988	873.0603609999999	69.234593	-368.18677	840.8716449999999	64.73322400000001	-273.73084	325.179768	652.997743	-410.851456	250.871588	449.432295	-391.198914	221.195254	482.018851	-473.439191	759.262426	1424.461312	-527.043666	703.522309	1408.326726	-158.648299	820.981189	1364.395379	-305.374637	698.244634	1467.488122	-347.647546	658.344916	1320.723361	-82.804468	665.983983	1253.900801	-64.663438	562.823727	1261.901607	-39.335936	571.9702140000001	1192.310797	19.615696	530.772337	1152.326684	-49.164182	712.506795	1381.777222	-590.2323709999999	630.0015979999999	1354.021122	-586.886527	670.934622	1314.933834	-645.474284	608.051316	1242.570201	-709.317865	537.624945	1224.344894	-654.1959900000001	651.7610110000001	1166.305282	17.882422	800.959133	1114.063777	-36.065427	767.068544	1056.267639	-16.296367	663.797908	1198.320253	-688.214663	755.757011	1100.6302	-568.103244	723.380581	1054.984889	-606.9062740000001	
89	0.816667	737.325404	954.048315	-487.206283	707.117358	972.468889	-242.498614	557.770753	980.851415	-428.25013	545.88372	986.792154	-342.447702	713.089289	800.153638	-204.285643	815.510183	714.0321300000001	-243.793279	782.6771639999999	569.595408	-250.540834	709.61098	805.575753	-528.1768970000001	760.6232209999999	696.333629	-523.2098549999999	701.388652	559.074808	-525.871293	839.491217	375.070039	-335.091581	794.299139	316.240696	-279.520323	773.5931399999999	207.373213	-355.333486	598.483861	438.696238	-445.63542	500.685238	501.272166	-491.465845	426.712821	513.948607	-415.919152	621.457928	100.048125	-356.032687	840.4897120000001	67.72415700000001	-367.437047	808.167245	64.38822	-274.056455	345.39475	651.859106	-416.43862	275.823733	446.565555	-396.079941	248.507675	477.228543	-479.937728	754.977318	1420.879338	-526.980968	704.368167	1402.292971	-156.230145	821.2558330000001	1358.323379	-306.209189	697.4541819999999	1463.641937	-346.253755	663.066383	1311.270327	-81.96402399999999	673.864806	1244.337838	-64.659436	571.321945	1248.941448	-36.378	586.061326	1180.175567	21.798388	543.527223	1137.374204	-44.257486	707.1919820000001	1378.937421	-589.915486	625.038248	1350.344843	-583.245523	664.102753	1313.797495	-644.4514359999999	599.490274	1242.289922	-707.750758	530.390761	1224.116594	-652.1142160000001	666.815293	1158.052175	16.452992	815.936302	1110.350534	-38.235951	783.927204	1051.504744	-17.117454	653.192963	1193.885431	-689.281006	743.840058	1087.321013	-575.212128	707.785706	1045.020301	-615.306094	
90	0.825	735.786559	948.887688	-485.164819	702.568688	971.904084	-238.492403	556.115317	981.185559	-431.5652	543.140309	987.335947	-345.47534	705.5109169999999	797.418189	-204.186615	804.269727	706.9716570000001	-242.353203	766.643925	563.694081	-251.274873	713.975367	804.11449	-527.2197650000001	770.766421	697.749145	-522.161394	720.161084	558.203513	-525.797604	819.588218	367.179395	-333.420711	769.545346	310.550181	-279.28254	745.551573	203.09099	-355.534728	622.5534699999999	438.693746	-444.962056	526.2297	498.849725	-494.20403	450.270999	511.277575	-418.940164	588.870785	100.503836	-356.328483	807.543488	66.17366800000001	-367.278637	775.184893	63.734261	-274.217625	363.442264	648.480282	-422.606552	301.818019	440.795074	-400.187945	276.695867	468.647306	-485.936027	750.8438630000001	1418.685047	-526.9417570000001	705.384382	1397.572727	-154.204698	820.847526	1354.262243	-306.833254	696.951782	1461.431751	-344.767009	667.759447	1303.99294	-81.757797	681.7696529999999	1237.37336	-65.205934	579.5852630000001	1237.672498	-35.522071	600.326233	1169.777152	22.760449	557.011198	1124.352306	-40.84838	701.9226200000001	1377.513297	-589.581586	620.200611	1347.572685	-579.737475	657.289113	1314.041521	-643.34691	591.2316949999999	1243.074361	-706.016931	523.687857	1224.477057	-650.055214	681.76651	1151.215949	14.243482	831.378787	1108.985554	-42.006629	801.04476	1049.181056	-20.428028	643.182374	1191.341204	-689.817659	731.480725	1076.067467	-581.841851	692.435559	1037.334214	-623.324255	
91	0.833333	734.151083	946.004853	-483.528128	698.016543	971.323707	-235.263921	554.4559819999999	982.205731	-433.464295	539.949528	988.3101830000001	-346.824596	696.880397	794.660024	-204.042364	791.174503	699.049168	-239.786943	748.0265429999999	558.094456	-251.583726	717.23552	803.945756	-526.334997	781.843047	701.195676	-520.457144	740.0831910000001	560.172716	-525.9359930000001	797.057269	358.678927	-332.253697	743.466132	303.747005	-279.185958	715.603345	198.422351	-356.110637	647.139752	439.891061	-443.523497	552.181463	496.531398	-496.584347	473.510487	507.701884	-421.639416	555.734013	100.87402	-356.485218	774.2737969999999	65.34744999999999	-367.869652	741.778417	63.188384	-274.139011	379.386742	642.6798659999999	-429.098662	328.556535	432.38874	-403.659037	305.296216	456.924725	-491.308641	746.882925	1417.949233	-526.997693	706.869292	1394.405968	-152.898868	820.0919239999999	1352.103494	-307.471397	696.441384	1460.403552	-343.501899	672.474751	1298.898666	-82.142737	689.481277	1233.124274	-66.15579200000001	587.412739	1228.219131	-36.808551	613.892082	1161.177642	22.528227	570.90328	1113.679243	-39.493152	696.577105	1377.691973	-589.185603	615.342997	1346.133059	-576.4887660000001	650.324506	1315.674838	-642.229482	583.121046	1245.272699	-704.4358130000001	517.113843	1225.807942	-648.178759	695.968338	1145.658136	11.671141	846.578754	1110.384788	-47.503596	818.004141	1049.536795	-26.565671	633.78841	1191.196273	-690.1667650000001	718.737397	1067.482432	-587.884602	677.719115	1032.223695	-630.957854	
